<svg width="55" height="50" viewBox="0 0 55 50" fill="none" xmlns="http://www.w3.org/2000/svg">
    <circle cx="27" cy="25" r="25" fill="#FFEA00" fill-opacity="0.97"/>
    <path d="M27.4984 21.5611C28.7745 21.7574 29.3627 23.2019 29.3627 23.2019C31.227 29.4322 31.7123 29.5687 34.062 32.3577C36.4117 35.1467 43.5281 35.9355 48.3657 33.7156C53.2032 31.499 53.7561 21.7674 53.7561 21.7674L55 20.3363V15.9764C50.9082 14.6385 38.5685 14.4787 30.4716 16.8351C29.038 17.0481 25.9877 17.0514 24.5284 16.8351C16.1165 14.3822 3.88931 14.7017 0 15.9731V20.3363L1.24394 21.7674C1.24394 21.7674 1.7968 31.4957 6.63433 33.7156C11.4719 35.9321 18.5883 35.1467 20.938 32.3577C23.2877 29.5687 23.7698 29.4289 25.6373 23.2019C25.6373 23.2019 26.2287 21.7574 27.5016 21.5611H27.4984ZM45.9485 33.0033C41.111 34.2181 36.0002 33.5026 33.927 29.5687C31.8538 25.6348 31.3716 21.4845 32.892 19.9835C32.892 19.9835 34.4799 17.9101 38.8353 17.6239C43.1874 17.3376 49.6835 16.6221 51.0657 20.6292C52.4478 24.6363 50.7893 31.7886 45.9517 33.0067L45.9485 33.0033ZM3.93753 20.6259C5.31968 16.6187 11.8126 17.3343 16.168 17.6205C20.5201 17.9068 22.1112 19.9802 22.1112 19.9802C23.6316 21.4812 23.1462 25.6314 21.0762 29.5653C19.003 33.4992 13.889 34.2148 9.0547 33C4.21717 31.7852 2.55859 24.6297 3.94074 20.6225L3.93753 20.6259Z" fill="#211615"/>
</svg>
